<svg xmlns="http://www.w3.org/2000/svg" viewBox="0 0 569.02 294.37"><defs><style>.cls-1{fill:#f26c45}.cls-3{fill:#b1b3ac}</style></defs><g id="Layer_2" data-name="Layer 2"><g id="Layer_1-2" data-name="Layer 1"><path class="cls-1" d="M0 193v-11.54q15.72 10 31.84 10 17.15 0 26-7.09t8.87-19.85q0-11.24-6-17.91T34.9 128.39q-22.24-13-28.16-21.69A35 35 0 0 1 .82 86.55q0-15.51 12-26.33T45 49.4a81.5 81.5 0 0 1 26.12 4.39V64.4a65.78 65.78 0 0 0-27.45-5.82q-14.89 0-23.63 7.56a24.27 24.27 0 0 0-8.72 19.18q0 11.24 6 17.86t25.77 18.07q20.51 11.63 27.3 20.66a33.68 33.68 0 0 1 6.78 20.77q0 16.84-11.68 27.45t-33 10.62a76.53 76.53 0 0 1-17.4-2.35Q5.21 196 0 193ZM163.31 198.2v-19h-.41q-10.9 21.55-33.68 21.55-37 0-37-46.64V93.69h9.49v58.07q0 21.23 7 30.82t22 9.59q14.6 0 23.63-10.71t9-28.58V93.69h9.39V198.2ZM197 193.6v-11.33a39.28 39.28 0 0 0 12.86 7.25 40.39 40.39 0 0 0 13.06 2.65q24.6 0 24.6-20.1a15.39 15.39 0 0 0-5.41-11.84q-5.42-4.9-17.55-10.1-15-6.54-21.08-13.53a25 25 0 0 1-6.07-17 25.2 25.2 0 0 1 9.75-20.6q9.74-7.86 24-7.86 13.47 0 23.06 5.51v10.61q-11.62-7.55-24.08-7.55-10.3 0-16.63 5.36a17.38 17.38 0 0 0-6.3 13.93q0 7.45 4 12.09t17.55 10.67q16.33 7.35 22.45 13.62t6.13 16.69a26.07 26.07 0 0 1-9.34 20.56q-9.34 8.12-25.77 8.12-15.13 0-25.23-7.15ZM324.88 196.77a32.46 32.46 0 0 1-13.78 3.47q-23.18 0-23.17-27.76v-70.22h-18.77v-8.57h18.77V66.54q2.25-.81 4.7-1.63c1.63-.47 3.2-1 4.69-1.53v30.31h27.56v8.57h-27.56v69q0 10.81 3.42 15.67t11.58 4.85q5.82 0 12.56-3.78ZM407 198.2v-20.93h-.41a41 41 0 0 1-14.54 17.1 37.32 37.32 0 0 1-21.18 6.38q-14.89 0-23.58-8.37t-8.67-21.13q0-27.34 36.23-33.06l32.15-4.8q0-33.67-25.31-33.68-17.25 0-33.58 13.88v-11.33q5.82-4.59 15.77-7.85a60.06 60.06 0 0 1 18.73-3.27q16.13 0 24.95 10t8.83 29.09v68Zm-28.78-52q-16.44 2.34-23.07 7.6t-6.63 17.09a20.47 20.47 0 0 0 6.17 15.31q6.18 6 17.2 6A32.28 32.28 0 0 0 397 181q10-11.17 10-28.83V142Z"/><path d="M451.31 25.2a12.34 12.34 0 0 1-8.79-3.65 12.27 12.27 0 0 1-3.81-9.28 11.21 11.21 0 0 1 3.9-8.87 12.88 12.88 0 0 1 8.7-3.4 13.54 13.54 0 0 1 9 3.32 11.14 11.14 0 0 1 3.9 9 12.45 12.45 0 0 1-3.82 9.12 12.44 12.44 0 0 1-9.08 3.76Z" style="fill:#9fa099"/><path class="cls-1" d="M446.78 93.69h9.39v104.5h-9.39zM559.63 198.2v-60.83q0-37.66-27.14-37.66-15.11 0-24.8 11.07T498 138.19v60h-9.4V93.69h9.4v19h.41q11.43-21.53 35.72-21.53 16.93 0 25.92 11.28t9 32.2v63.56Z"/><path class="cls-3" d="M107.59 282a12 12 0 0 1-6.4 1.65 10.12 10.12 0 0 1-7.92-3.38 12.75 12.75 0 0 1-3-8.83 13.27 13.27 0 0 1 3.39-9.39 11.3 11.3 0 0 1 8.7-3.66 13.22 13.22 0 0 1 5.33 1.13V262a10.51 10.51 0 0 0-5.66-1.6 8.66 8.66 0 0 0-6.87 3 11.61 11.61 0 0 0-2.63 7.89 11.25 11.25 0 0 0 2.41 7.53 7.92 7.92 0 0 0 6.36 2.84 10.49 10.49 0 0 0 6.3-1.93ZM123 283.65a10.59 10.59 0 0 1-8.34-3.47 13.13 13.13 0 0 1-3.07-9q0-6 3.21-9.38a11.11 11.11 0 0 1 8.46-3.39 10.3 10.3 0 0 1 8.13 3.37q3 3.36 3 9.31a13.33 13.33 0 0 1-3 9.1 10.52 10.52 0 0 1-8.39 3.46Zm.16-23.28a8.56 8.56 0 0 0-6.78 2.87q-2.53 2.86-2.53 8a11.2 11.2 0 0 0 2.47 7.59 8.43 8.43 0 0 0 6.75 2.87 8.24 8.24 0 0 0 6.7-2.82q2.35-2.82 2.35-7.83c0-3.43-.78-6.07-2.34-7.9a8.22 8.22 0 0 0-6.58-2.78ZM154.78 283.06v-4.82h-.09a9.47 9.47 0 0 1-3.35 3.94 8.59 8.59 0 0 1-4.88 1.47 7.47 7.47 0 0 1-5.43-1.93 6.5 6.5 0 0 1-2-4.87q0-6.3 8.35-7.62l7.4-1.1q0-7.77-5.83-7.76a11.81 11.81 0 0 0-7.73 3.2V261a11.58 11.58 0 0 1 3.63-1.81 13.66 13.66 0 0 1 4.31-.76 7.24 7.24 0 0 1 5.75 2.31c1.36 1.53 2 3.77 2 6.7v15.66Zm-6.63-12a11.45 11.45 0 0 0-5.31 1.75 5.45 5.45 0 0 0-.11 7.46 5.42 5.42 0 0 0 4 1.39 7.47 7.47 0 0 0 5.79-2.57 9.58 9.58 0 0 0 2.3-6.65v-2.34ZM179.78 282a12 12 0 0 1-6.4 1.65 10.12 10.12 0 0 1-7.92-3.38 12.75 12.75 0 0 1-3-8.83 13.27 13.27 0 0 1 3.39-9.39 11.3 11.3 0 0 1 8.7-3.66 13.22 13.22 0 0 1 5.33 1.13V262a10.51 10.51 0 0 0-5.66-1.6 8.66 8.66 0 0 0-6.87 3 11.61 11.61 0 0 0-2.63 7.89 11.25 11.25 0 0 0 2.41 7.53 7.92 7.92 0 0 0 6.36 2.84 10.49 10.49 0 0 0 6.3-1.93ZM201.93 283.06v-14.44q0-4.28-1.55-6.26a5.76 5.76 0 0 0-4.84-2 7.41 7.41 0 0 0-5.46 2.42q-2.36 2.43-2.35 6.94v13.33h-2.17v-35.64h2.17v15.9h.09a9.05 9.05 0 0 1 8.28-4.92 7.23 7.23 0 0 1 6 2.52c1.36 1.68 2 4.08 2 7.22v14.93ZM212.4 252.91a1.79 1.79 0 0 1-1.79-1.83 1.58 1.58 0 0 1 .55-1.26 1.84 1.84 0 0 1 1.24-.48 2 2 0 0 1 1.28.47 1.61 1.61 0 0 1 .55 1.27 1.84 1.84 0 0 1-1.83 1.83Zm-1.06 30.15V259h2.16v24.08ZM237.58 283.06v-14q0-8.69-6.26-8.68a7.25 7.25 0 0 0-5.71 2.55 9.24 9.24 0 0 0-2.23 6.31v13.83h-2.17V259h2.17v4.37h.09a8.73 8.73 0 0 1 8.23-5 7.19 7.19 0 0 1 6 2.6c1.38 1.73 2.07 4.21 2.07 7.42v14.65ZM266.24 281.27q0 6.8-3 10t-9.22 3.15a16.09 16.09 0 0 1-7.17-1.83v-2.26a15 15 0 0 0 7.22 2.12q10 0 10-10.54v-3.13H264a9.37 9.37 0 0 1-8.68 4.92 9.23 9.23 0 0 1-7.26-3.22q-2.81-3.23-2.8-9a14.21 14.21 0 0 1 3-9.4 9.89 9.89 0 0 1 8-3.65 8.15 8.15 0 0 1 7.72 4.4h.09V259h2.16Zm-2.16-13a7.87 7.87 0 0 0-2.15-5.52 7.28 7.28 0 0 0-5.61-2.33 7.84 7.84 0 0 0-6.4 3 12.22 12.22 0 0 0-2.42 7.91q0 4.94 2.22 7.67a7.19 7.19 0 0 0 5.87 2.74 8 8 0 0 0 6.19-2.51 8.81 8.81 0 0 0 2.3-6.16ZM312.92 283.06l-4.54-4.42a15 15 0 0 1-11.26 5q-5 0-7.74-2.55a8.45 8.45 0 0 1-2.77-6.51q0-6.48 7.8-10c-2.53-2.93-3.81-5.61-3.81-8a7.49 7.49 0 0 1 2.32-5.54 8.19 8.19 0 0 1 6-2.26 7.17 7.17 0 0 1 5.29 1.91 6.62 6.62 0 0 1 1.92 4.88 8.13 8.13 0 0 1-1.95 5.49 17.67 17.67 0 0 1-6.13 4.18q3.52 3.74 10.34 10.2a19 19 0 0 0 3.13-10.2h2.26a21.27 21.27 0 0 1-3.92 11.76q4 3.94 6.42 6.16Zm-6-5.88q-7.81-7.55-11-11-7 3.06-7 8.28a6.73 6.73 0 0 0 2.24 5.21 8.9 8.9 0 0 0 6.18 2 13 13 0 0 0 9.66-4.49Zm-10.42-13.47a17 17 0 0 0 5.7-3.62 6.15 6.15 0 0 0 1.61-4.24 4.82 4.82 0 0 0-1.48-3.71 5.13 5.13 0 0 0-3.67-1.39 5.47 5.47 0 0 0-4.23 1.71 5.89 5.89 0 0 0-1.57 4.17q.03 3.02 3.67 7.08ZM343.42 282.73a7.53 7.53 0 0 1-3.17.8q-5.34 0-5.34-6.4V261h-4.33v-2h4.33v-6.25c.34-.13.7-.25 1.08-.38s.74-.23 1.08-.35v7h6.35v2h-6.35v15.89a6.35 6.35 0 0 0 .79 3.61 3 3 0 0 0 2.67 1.12 6 6 0 0 0 2.89-.87ZM359.55 261.24a4.23 4.23 0 0 0-2.54-.78 5.6 5.6 0 0 0-4.77 2.94q-1.94 2.94-1.93 8.35v11.31h-2.12V259h2.12v5.34h.09A8.81 8.81 0 0 1 353 260a6.17 6.17 0 0 1 4.14-1.53 6.5 6.5 0 0 1 2.4.42ZM378.48 283.06v-4.82h-.09a9.47 9.47 0 0 1-3.35 3.94 8.62 8.62 0 0 1-4.88 1.47 7.51 7.51 0 0 1-5.44-1.93 6.5 6.5 0 0 1-2-4.87q0-6.3 8.35-7.62l7.41-1.1q0-7.77-5.83-7.76a11.85 11.85 0 0 0-7.74 3.2V261a11.69 11.69 0 0 1 3.63-1.81 13.67 13.67 0 0 1 4.32-.76 7.26 7.26 0 0 1 5.75 2.31c1.35 1.53 2 3.77 2 6.7v15.66Zm-6.63-12a11.46 11.46 0 0 0-5.32 1.75 5.46 5.46 0 0 0-.1 7.46 5.42 5.42 0 0 0 4 1.39 7.43 7.43 0 0 0 5.78-2.57 9.58 9.58 0 0 0 2.31-6.65v-2.34ZM388.94 252.91a1.79 1.79 0 0 1-1.78-1.83 1.58 1.58 0 0 1 .55-1.26 1.84 1.84 0 0 1 1.23-.48 2 2 0 0 1 1.29.47 1.61 1.61 0 0 1 .55 1.27 1.84 1.84 0 0 1-1.84 1.83Zm-1.05 30.15V259h2.16v24.08ZM414.13 283.06v-14q0-8.69-6.26-8.68a7.25 7.25 0 0 0-5.71 2.55 9.25 9.25 0 0 0-2.24 6.31v13.83h-2.16V259h2.16v4.37h.1a8.72 8.72 0 0 1 8.23-5 7.19 7.19 0 0 1 6 2.6c1.38 1.73 2.07 4.21 2.07 7.42v14.65ZM424.59 252.91a1.75 1.75 0 0 1-1.24-.51 1.77 1.77 0 0 1-.55-1.32 1.59 1.59 0 0 1 .56-1.26 1.84 1.84 0 0 1 1.23-.48 1.93 1.93 0 0 1 1.28.47 1.58 1.58 0 0 1 .56 1.27 1.76 1.76 0 0 1-.54 1.29 1.8 1.8 0 0 1-1.3.54Zm-1.06 30.15V259h2.17v24.08ZM449.78 283.06v-14q0-8.69-6.26-8.68a7.25 7.25 0 0 0-5.71 2.55 9.25 9.25 0 0 0-2.24 6.31v13.83h-2.16V259h2.16v4.37h.1a8.72 8.72 0 0 1 8.23-5 7.19 7.19 0 0 1 6 2.6c1.38 1.73 2.07 4.21 2.07 7.42v14.65ZM478.44 281.27q0 6.8-3 10t-9.22 3.15a16.09 16.09 0 0 1-7.17-1.83v-2.26a14.93 14.93 0 0 0 7.22 2.12q10 0 10-10.54v-3.13h-.1a9.36 9.36 0 0 1-8.67 4.92 9.2 9.2 0 0 1-7.26-3.22q-2.81-3.23-2.81-9a14.16 14.16 0 0 1 3-9.4 9.88 9.88 0 0 1 8-3.65 8.15 8.15 0 0 1 7.71 4.4h.1V259h2.16Zm-2.16-13a7.87 7.87 0 0 0-2.15-5.52 7.28 7.28 0 0 0-5.61-2.33 7.84 7.84 0 0 0-6.4 3 12.22 12.22 0 0 0-2.42 7.91q0 4.94 2.22 7.67a7.18 7.18 0 0 0 5.87 2.74 8 8 0 0 0 6.18-2.51 8.78 8.78 0 0 0 2.31-6.16Z"/></g></g></svg>