<svg xmlns="http://www.w3.org/2000/svg" viewBox="0 0 822.2 222.52"><defs><style>.cls-1{fill:#97c134;}</style></defs><g id="Layer_2" data-name="Layer 2"><g id="Layer_1-2" data-name="Layer 1"><path class="cls-1" d="M120,53.75V200H21V53.75h99m21-21H0V221H141V32.75Z"/><path d="M210.64,98.66,186.07,32.75h18l16,47.89-5.32.14,16.51-48h12.83l16.64,48-5.32-.14,16-47.89h18L264.81,98.66h-13L235.33,53.22h5L223.6,98.66Z"/><path d="M328.12,100.16a37.4,37.4,0,0,1-18.49-4.51,33.47,33.47,0,0,1-12.76-12.28,34,34,0,0,1-4.63-17.74A34.06,34.06,0,0,1,296.81,48a33.36,33.36,0,0,1,12.48-12.28A35.26,35.26,0,0,1,327,31.25a32.82,32.82,0,0,1,16.65,4.23,29.66,29.66,0,0,1,11.46,11.73,35,35,0,0,1,4.09,17.06c0,1.18,0,2.39-.13,3.62a24.3,24.3,0,0,1-.68,4l-55.54.14V58.67l47.21-.13-7.37,5.59a23.85,23.85,0,0,0-2-9.82,13.81,13.81,0,0,0-5.33-6,16.21,16.21,0,0,0-8.46-2,18,18,0,0,0-9.27,2.32,15.25,15.25,0,0,0-6.08,6.62,22.75,22.75,0,0,0-2.11,10.16,22.79,22.79,0,0,0,2.25,10.44,15.44,15.44,0,0,0,6.48,6.75A20.09,20.09,0,0,0,328,84.87a24.47,24.47,0,0,0,9.14-1.63,18,18,0,0,0,7.09-5.19l10.65,10.64A32.37,32.37,0,0,1,343,97.29,38.06,38.06,0,0,1,328.12,100.16Z"/><path d="M370.42,98.66V0H388.3V48.85l-3,16,2.87,16.1V98.66ZM407,100a27.82,27.82,0,0,1-12.83-2.93A24.13,24.13,0,0,1,385,89a22.3,22.3,0,0,1-3.75-11.74V53.76A21.38,21.38,0,0,1,385,42.3a24.48,24.48,0,0,1,9.28-8A27.82,27.82,0,0,1,407,31.38a30.69,30.69,0,0,1,16.44,4.51,31.17,31.17,0,0,1,11.4,12.28,37.18,37.18,0,0,1,4.09,17.6,36.51,36.51,0,0,1-4.16,17.47,31.9,31.9,0,0,1-11.4,12.28A30.35,30.35,0,0,1,407,100Zm-3-16.51a15.74,15.74,0,0,0,8.59-2.32,16.4,16.4,0,0,0,5.8-6.28,19.38,19.38,0,0,0,2.12-9.28,19.2,19.2,0,0,0-2.12-9.07,16.79,16.79,0,0,0-23.19-6.35,15.67,15.67,0,0,0-5.8,6.28,19.87,19.87,0,0,0-2.05,9.28,19.52,19.52,0,0,0,2.05,9.14,15.57,15.57,0,0,0,5.87,6.28A16.42,16.42,0,0,0,404,83.51Z"/><path d="M473.3,100.16a42.93,42.93,0,0,1-11.12-1.44,36,36,0,0,1-9.89-4.23,33.51,33.51,0,0,1-7.78-6.61L455.29,77.1A20.29,20.29,0,0,0,463.07,83a24.8,24.8,0,0,0,9.83,1.91,14,14,0,0,0,6.68-1.29A4,4,0,0,0,481.9,80a4.55,4.55,0,0,0-2.45-4.16,27.36,27.36,0,0,0-6.21-2.52l-8-2.32a37.51,37.51,0,0,1-8-3.35,17.68,17.68,0,0,1-6.21-5.93,18,18,0,0,1-2.45-9.83,19.28,19.28,0,0,1,3.14-11,20,20,0,0,1,8.86-7.23,33.24,33.24,0,0,1,13.51-2.53,37.6,37.6,0,0,1,14.81,2.8,26.57,26.57,0,0,1,11,8.53L489.13,53.35a19.41,19.41,0,0,0-6.75-5.25,19,19,0,0,0-8-1.71,12.15,12.15,0,0,0-6.14,1.23A3.8,3.8,0,0,0,466.21,51a4.1,4.1,0,0,0,2.32,3.76,29,29,0,0,0,6.14,2.38q3.82,1.09,8,2.39a34.73,34.73,0,0,1,7.92,3.62,19,19,0,0,1,6.14,6.14,18.29,18.29,0,0,1,2.38,9.82q0,9.69-6.95,15.35T473.3,100.16Z"/><path d="M520.11,22.11a9.68,9.68,0,0,1-7.24-2.94,10,10,0,0,1-2.86-7.3,10.09,10.09,0,0,1,2.86-7.23,10.31,10.31,0,0,1,14.54,0,10.24,10.24,0,0,1,2.79,7.23,10.17,10.17,0,0,1-2.79,7.3A9.63,9.63,0,0,1,520.11,22.11ZM511,98.66V32.75h18.15V98.66Z"/><path d="M539.21,48.44V32.75h48.71V48.44Zm15.42,50.22V5.32H572.5V98.66Z"/><path d="M627.9,100.16a37.4,37.4,0,0,1-18.49-4.51,33.47,33.47,0,0,1-12.76-12.28A34,34,0,0,1,592,65.63,34.07,34.07,0,0,1,596.59,48a33.28,33.28,0,0,1,12.48-12.28,35.26,35.26,0,0,1,17.74-4.5,32.82,32.82,0,0,1,16.65,4.23,29.66,29.66,0,0,1,11.46,11.73A35,35,0,0,1,659,64.27c0,1.18,0,2.39-.13,3.62a23.38,23.38,0,0,1-.69,4l-55.53.14V58.67l47.21-.13-7.37,5.59a23.85,23.85,0,0,0-2-9.82,13.81,13.81,0,0,0-5.33-6,16.21,16.21,0,0,0-8.46-2,18,18,0,0,0-9.27,2.32,15.25,15.25,0,0,0-6.08,6.62,22.75,22.75,0,0,0-2.11,10.16,22.79,22.79,0,0,0,2.25,10.44,15.44,15.44,0,0,0,6.48,6.75,20.06,20.06,0,0,0,9.83,2.32,24.47,24.47,0,0,0,9.14-1.63A18,18,0,0,0,644,78.05l10.65,10.64a32.37,32.37,0,0,1-11.87,8.6A38.06,38.06,0,0,1,627.9,100.16Z"/><path d="M220.6,222.38a29.74,29.74,0,0,1-16.17-4.5,31.56,31.56,0,0,1-11.26-12.28,39.63,39.63,0,0,1,0-35.07,31.49,31.49,0,0,1,11.26-12.28,30,30,0,0,1,16.3-4.5,27.16,27.16,0,0,1,12.56,2.86,23.64,23.64,0,0,1,9,7.92A21.91,21.91,0,0,1,246,176.12V200a22.47,22.47,0,0,1-3.62,11.53,22.8,22.8,0,0,1-9,8A27.81,27.81,0,0,1,220.6,222.38ZM224,205.87a15.7,15.7,0,0,0,12.14-5.05,18,18,0,0,0,4.64-12.69,19.5,19.5,0,0,0-2.18-9.28,16.14,16.14,0,0,0-5.87-6.34,16.44,16.44,0,0,0-8.73-2.25,15.95,15.95,0,0,0-14.53,8.59,19,19,0,0,0-2.12,9.15,19.32,19.32,0,0,0,2.12,9.28,16,16,0,0,0,5.93,6.27A16.21,16.21,0,0,0,224,205.87ZM239.7,221V203.28l3-16.1-3-16v-16.1h18V221Z"/><path d="M300.69,222.38a29.78,29.78,0,0,1-16.17-4.5,31.61,31.61,0,0,1-11.25-12.28,39.55,39.55,0,0,1,0-35.07,31.54,31.54,0,0,1,11.25-12.28,30,30,0,0,1,16.31-4.5,27.12,27.12,0,0,1,12.55,2.86,23.74,23.74,0,0,1,9,7.92,21.9,21.9,0,0,1,3.68,11.59V200a22.37,22.37,0,0,1-3.61,11.53,22.8,22.8,0,0,1-9,8A27.85,27.85,0,0,1,300.69,222.38Zm3.41-16.51a15.72,15.72,0,0,0,12.15-5.05,18,18,0,0,0,4.64-12.69,19.39,19.39,0,0,0-2.19-9.28,16.12,16.12,0,0,0-5.86-6.34,16.45,16.45,0,0,0-8.74-2.25,16,16,0,0,0-14.53,8.59,19.13,19.13,0,0,0-2.11,9.15,19.43,19.43,0,0,0,2.11,9.28,16.18,16.18,0,0,0,14.53,8.59ZM319.8,221V203.28l3-16.1-3-16v-16.1h18V221Z"/><path d="M353.36,221V155.11h17.88V221Zm44.21,0v-37.8a12.93,12.93,0,0,0-3.68-9.55,12.76,12.76,0,0,0-9.42-3.69,14,14,0,0,0-6.82,1.64,11.73,11.73,0,0,0-4.71,4.71,13.91,13.91,0,0,0-1.7,6.89l-7-3.68a26.38,26.38,0,0,1,3.34-13.44A23.76,23.76,0,0,1,376.9,157a27.4,27.4,0,0,1,13.44-3.27,23.68,23.68,0,0,1,13,3.61,26.37,26.37,0,0,1,8.94,9.42,24.76,24.76,0,0,1,3.27,12.35V221Z"/><path d="M430.05,221V122.36h17.87v48.85l-3,16,2.87,16.1V221Zm36.57,1.36a27.82,27.82,0,0,1-12.83-2.93,24.13,24.13,0,0,1-9.21-8.12,22.3,22.3,0,0,1-3.75-11.74V176.12a21.38,21.38,0,0,1,3.75-11.46,24.48,24.48,0,0,1,9.28-8,27.91,27.91,0,0,1,12.76-2.93,30.71,30.71,0,0,1,16.44,4.5,31.15,31.15,0,0,1,11.39,12.28,37.21,37.21,0,0,1,4.1,17.6,36.51,36.51,0,0,1-4.16,17.47A32,32,0,0,1,483,217.88,30.35,30.35,0,0,1,466.62,222.38Zm-3-16.51a15.74,15.74,0,0,0,8.59-2.32,16.38,16.38,0,0,0,5.8-6.27,20.93,20.93,0,0,0,0-18.36,16.78,16.78,0,0,0-23.2-6.34,15.69,15.69,0,0,0-5.79,6.27,19.87,19.87,0,0,0-2,9.28,19.59,19.59,0,0,0,2,9.15,15.52,15.52,0,0,0,5.86,6.27A16.48,16.48,0,0,0,463.62,205.87Z"/><path d="M519.15,144.47a9.67,9.67,0,0,1-7.23-2.94,10.63,10.63,0,0,1,0-14.53,10.3,10.3,0,0,1,14.53,0,10.82,10.82,0,0,1,0,14.53A9.61,9.61,0,0,1,519.15,144.47ZM510,221V155.11h18.15V221Z"/><path d="M575.5,222.52A37.53,37.53,0,0,1,557,218a33.52,33.52,0,0,1-12.75-12.28,36.22,36.22,0,0,1-.07-35.35,33.43,33.43,0,0,1,12.48-12.28,35.26,35.26,0,0,1,17.74-4.5,32.82,32.82,0,0,1,16.65,4.23,29.62,29.62,0,0,1,11.46,11.74,35,35,0,0,1,4.09,17c0,1.19,0,2.39-.13,3.62a24.13,24.13,0,0,1-.68,4l-55.54.14V181l47.21-.14-7.37,5.6a23.87,23.87,0,0,0-2-9.83,13.77,13.77,0,0,0-5.32-6,16.16,16.16,0,0,0-8.46-2,18,18,0,0,0-9.28,2.32,15.31,15.31,0,0,0-6.08,6.62,25.43,25.43,0,0,0,.14,20.6,15.52,15.52,0,0,0,6.48,6.76,20.2,20.2,0,0,0,9.83,2.32,24.47,24.47,0,0,0,9.14-1.64,17.85,17.85,0,0,0,7.09-5.19l10.65,10.65a32.46,32.46,0,0,1-11.87,8.59A38.06,38.06,0,0,1,575.5,222.52Z"/><path d="M645.5,222.38a30,30,0,0,1-16.3-4.5,32.6,32.6,0,0,1-11.4-12.28,38.46,38.46,0,0,1,0-35.07,32.52,32.52,0,0,1,11.4-12.28,30,30,0,0,1,16.3-4.5,27.82,27.82,0,0,1,12.83,2.93,24.64,24.64,0,0,1,9.21,8,21.38,21.38,0,0,1,3.75,11.46v23.47a22.68,22.68,0,0,1-3.68,11.74,23.64,23.64,0,0,1-9.14,8.12A28.17,28.17,0,0,1,645.5,222.38Zm3.14-16.51a16.42,16.42,0,0,0,8.73-2.32,16.06,16.06,0,0,0,5.94-6.27,19.13,19.13,0,0,0,2.11-9.15,19.41,19.41,0,0,0-2.11-9.28,16,16,0,0,0-14.53-8.59,16.77,16.77,0,0,0-8.8,2.25,15.54,15.54,0,0,0-5.87,6.28A19.49,19.49,0,0,0,632,188a19.79,19.79,0,0,0,2.12,9.34,15.48,15.48,0,0,0,5.93,6.28A16.65,16.65,0,0,0,648.64,205.87ZM682.34,221h-18V203.28l3-16.1-3.13-16V122.36h18.14Z"/><path d="M729.42,222.52a37.5,37.5,0,0,1-18.49-4.5,33.55,33.55,0,0,1-12.76-12.28,36.22,36.22,0,0,1-.07-35.35,33.46,33.46,0,0,1,12.49-12.28,35.24,35.24,0,0,1,17.74-4.5A32.81,32.81,0,0,1,745,157.84a29.58,29.58,0,0,1,11.47,11.74,35,35,0,0,1,4.09,17c0,1.19,0,2.39-.14,3.62a24.13,24.13,0,0,1-.68,4l-55.53.14V181l47.21-.14L744,186.5a23.7,23.7,0,0,0-2-9.83,13.71,13.71,0,0,0-5.32-6,16.12,16.12,0,0,0-8.46-2,18,18,0,0,0-9.28,2.32,15.29,15.29,0,0,0-6.07,6.62,25.43,25.43,0,0,0,.14,20.6,15.52,15.52,0,0,0,6.48,6.76,20.16,20.16,0,0,0,9.82,2.32,24.48,24.48,0,0,0,9.15-1.64,17.92,17.92,0,0,0,7.09-5.19l10.64,10.65a32.3,32.3,0,0,1-11.87,8.59A38,38,0,0,1,729.42,222.52Z"/><path d="M771.72,221V155.11h17.87V221Zm17.87-36.3-7-4.77q1.23-12.15,7.1-19.18t16.92-7a22.23,22.23,0,0,1,8.66,1.57,19,19,0,0,1,6.89,5.11L811,173.4a8.33,8.33,0,0,0-3.62-2.53,14.47,14.47,0,0,0-4.84-.75,12.75,12.75,0,0,0-9.35,3.55Q789.59,177.23,789.59,184.72Z"/></g></g></svg>